<mxfile host="app.diagrams.net" modified="2022-12-11T15:50:07.929Z" agent="5.0 (Windows NT 10.0; Win64; x64) AppleWebKit/537.36 (KHTML, like Gecko) Chrome/108.0.0.0 Safari/537.36" version="20.6.2" etag="dGr2z9BUSusVlyFFRO7e" type="github">
  <diagram id="m4pGpIiKichRu32uKRGo" name="Page-1">
    <mxGraphModel dx="868" dy="431" grid="0" gridSize="10" guides="1" tooltips="1" connect="1" arrows="1" fold="1" page="1" pageScale="1" pageWidth="850" pageHeight="1100" math="0" shadow="0">
      <root>
        <mxCell id="0" />
        <mxCell id="1" parent="0" />
        <mxCell id="q_M4NoGxjoYpFTbgtNN7-6" value="" style="endArrow=classic;html=1;rounded=0;entryX=1;entryY=0.5;entryDx=0;entryDy=0;exitX=0.026;exitY=0.793;exitDx=0;exitDy=0;exitPerimeter=0;" edge="1" parent="1" source="q_M4NoGxjoYpFTbgtNN7-7" target="q_M4NoGxjoYpFTbgtNN7-5">
          <mxGeometry width="50" height="50" relative="1" as="geometry">
            <mxPoint x="399" y="352" as="sourcePoint" />
            <mxPoint x="449" y="302" as="targetPoint" />
            <Array as="points" />
          </mxGeometry>
        </mxCell>
        <mxCell id="q_M4NoGxjoYpFTbgtNN7-1" value="`" style="rounded=0;whiteSpace=wrap;html=1;" vertex="1" parent="1">
          <mxGeometry x="240" y="14" width="401" height="459" as="geometry" />
        </mxCell>
        <mxCell id="q_M4NoGxjoYpFTbgtNN7-2" value="learnable" style="text;html=1;strokeColor=none;fillColor=none;align=center;verticalAlign=middle;whiteSpace=wrap;rounded=0;" vertex="1" parent="1">
          <mxGeometry x="361" y="21" width="153" height="21" as="geometry" />
        </mxCell>
        <mxCell id="q_M4NoGxjoYpFTbgtNN7-3" value="Actor" style="shape=umlActor;verticalLabelPosition=bottom;verticalAlign=top;html=1;outlineConnect=0;" vertex="1" parent="1">
          <mxGeometry x="139" y="90" width="30" height="81" as="geometry" />
        </mxCell>
        <mxCell id="q_M4NoGxjoYpFTbgtNN7-4" value="Actor" style="shape=umlActor;verticalLabelPosition=bottom;verticalAlign=top;html=1;outlineConnect=0;" vertex="1" parent="1">
          <mxGeometry x="738" y="113" width="30" height="75" as="geometry" />
        </mxCell>
        <mxCell id="q_M4NoGxjoYpFTbgtNN7-5" value="signup" style="ellipse;whiteSpace=wrap;html=1;" vertex="1" parent="1">
          <mxGeometry x="388" y="52" width="70" height="41" as="geometry" />
        </mxCell>
        <mxCell id="q_M4NoGxjoYpFTbgtNN7-7" value="login" style="ellipse;whiteSpace=wrap;html=1;" vertex="1" parent="1">
          <mxGeometry x="384.5" y="124" width="77" height="29" as="geometry" />
        </mxCell>
        <mxCell id="q_M4NoGxjoYpFTbgtNN7-8" value="" style="endArrow=classic;html=1;rounded=0;exitX=0.5;exitY=1;exitDx=0;exitDy=0;" edge="1" parent="1" source="q_M4NoGxjoYpFTbgtNN7-5" target="q_M4NoGxjoYpFTbgtNN7-7">
          <mxGeometry relative="1" as="geometry">
            <mxPoint x="344" y="329" as="sourcePoint" />
            <mxPoint x="504" y="329" as="targetPoint" />
          </mxGeometry>
        </mxCell>
        <mxCell id="q_M4NoGxjoYpFTbgtNN7-14" value="" style="endArrow=none;html=1;rounded=0;entryX=0;entryY=0.683;entryDx=0;entryDy=0;entryPerimeter=0;" edge="1" parent="1" source="q_M4NoGxjoYpFTbgtNN7-3" target="q_M4NoGxjoYpFTbgtNN7-5">
          <mxGeometry width="50" height="50" relative="1" as="geometry">
            <mxPoint x="399" y="222" as="sourcePoint" />
            <mxPoint x="449" y="172" as="targetPoint" />
            <Array as="points" />
          </mxGeometry>
        </mxCell>
        <mxCell id="q_M4NoGxjoYpFTbgtNN7-16" value="" style="endArrow=none;html=1;rounded=0;" edge="1" parent="1">
          <mxGeometry width="50" height="50" relative="1" as="geometry">
            <mxPoint x="733" y="136" as="sourcePoint" />
            <mxPoint x="457" y="85" as="targetPoint" />
          </mxGeometry>
        </mxCell>
        <mxCell id="q_M4NoGxjoYpFTbgtNN7-17" value="" style="endArrow=none;html=1;rounded=0;entryX=0;entryY=0.5;entryDx=0;entryDy=0;" edge="1" parent="1" target="q_M4NoGxjoYpFTbgtNN7-7">
          <mxGeometry width="50" height="50" relative="1" as="geometry">
            <mxPoint x="176" y="129" as="sourcePoint" />
            <mxPoint x="450" y="172" as="targetPoint" />
          </mxGeometry>
        </mxCell>
        <mxCell id="q_M4NoGxjoYpFTbgtNN7-19" value="error" style="ellipse;whiteSpace=wrap;html=1;" vertex="1" parent="1">
          <mxGeometry x="511" y="52" width="73" height="36" as="geometry" />
        </mxCell>
        <mxCell id="q_M4NoGxjoYpFTbgtNN7-20" value="choosing a learning path" style="ellipse;whiteSpace=wrap;html=1;" vertex="1" parent="1">
          <mxGeometry x="389.5" y="188" width="67" height="43" as="geometry" />
        </mxCell>
        <mxCell id="q_M4NoGxjoYpFTbgtNN7-21" value="" style="endArrow=none;html=1;rounded=0;exitX=0;exitY=0.5;exitDx=0;exitDy=0;" edge="1" parent="1" source="q_M4NoGxjoYpFTbgtNN7-20">
          <mxGeometry width="50" height="50" relative="1" as="geometry">
            <mxPoint x="206" y="252" as="sourcePoint" />
            <mxPoint x="172" y="127" as="targetPoint" />
          </mxGeometry>
        </mxCell>
        <mxCell id="q_M4NoGxjoYpFTbgtNN7-22" value="" style="endArrow=none;html=1;rounded=0;" edge="1" parent="1" target="q_M4NoGxjoYpFTbgtNN7-20">
          <mxGeometry width="50" height="50" relative="1" as="geometry">
            <mxPoint x="733" y="139" as="sourcePoint" />
            <mxPoint x="116" y="278" as="targetPoint" />
          </mxGeometry>
        </mxCell>
        <mxCell id="q_M4NoGxjoYpFTbgtNN7-23" value="" style="endArrow=classic;html=1;rounded=0;entryX=0.5;entryY=0;entryDx=0;entryDy=0;exitX=0.5;exitY=1;exitDx=0;exitDy=0;" edge="1" parent="1" source="q_M4NoGxjoYpFTbgtNN7-7" target="q_M4NoGxjoYpFTbgtNN7-20">
          <mxGeometry width="50" height="50" relative="1" as="geometry">
            <mxPoint x="84" y="108" as="sourcePoint" />
            <mxPoint x="134" y="58" as="targetPoint" />
          </mxGeometry>
        </mxCell>
        <mxCell id="q_M4NoGxjoYpFTbgtNN7-24" value="release of videos" style="ellipse;whiteSpace=wrap;html=1;" vertex="1" parent="1">
          <mxGeometry x="384.5" y="270" width="89" height="37" as="geometry" />
        </mxCell>
        <mxCell id="q_M4NoGxjoYpFTbgtNN7-25" value="" style="endArrow=none;html=1;rounded=0;exitX=1;exitY=0.5;exitDx=0;exitDy=0;" edge="1" parent="1" source="q_M4NoGxjoYpFTbgtNN7-24">
          <mxGeometry width="50" height="50" relative="1" as="geometry">
            <mxPoint x="553" y="300" as="sourcePoint" />
            <mxPoint x="729" y="137" as="targetPoint" />
          </mxGeometry>
        </mxCell>
        <mxCell id="q_M4NoGxjoYpFTbgtNN7-26" value="" style="endArrow=none;html=1;rounded=0;entryX=0;entryY=0.5;entryDx=0;entryDy=0;" edge="1" parent="1" target="q_M4NoGxjoYpFTbgtNN7-24">
          <mxGeometry width="50" height="50" relative="1" as="geometry">
            <mxPoint x="171" y="124" as="sourcePoint" />
            <mxPoint x="103" y="348" as="targetPoint" />
          </mxGeometry>
        </mxCell>
        <mxCell id="q_M4NoGxjoYpFTbgtNN7-29" value="" style="endArrow=classic;html=1;rounded=0;entryX=0;entryY=1;entryDx=0;entryDy=0;exitX=0.968;exitY=0.31;exitDx=0;exitDy=0;exitPerimeter=0;" edge="1" parent="1" source="q_M4NoGxjoYpFTbgtNN7-7" target="q_M4NoGxjoYpFTbgtNN7-19">
          <mxGeometry width="50" height="50" relative="1" as="geometry">
            <mxPoint x="424" y="177" as="sourcePoint" />
            <mxPoint x="474" y="127" as="targetPoint" />
          </mxGeometry>
        </mxCell>
        <mxCell id="q_M4NoGxjoYpFTbgtNN7-30" value="task" style="ellipse;whiteSpace=wrap;html=1;" vertex="1" parent="1">
          <mxGeometry x="390" y="337" width="70" height="40" as="geometry" />
        </mxCell>
        <mxCell id="q_M4NoGxjoYpFTbgtNN7-31" value="" style="endArrow=none;html=1;rounded=0;entryX=0.5;entryY=1;entryDx=0;entryDy=0;" edge="1" parent="1" target="q_M4NoGxjoYpFTbgtNN7-20">
          <mxGeometry width="50" height="50" relative="1" as="geometry">
            <mxPoint x="423" y="271" as="sourcePoint" />
            <mxPoint x="447" y="226" as="targetPoint" />
          </mxGeometry>
        </mxCell>
        <mxCell id="q_M4NoGxjoYpFTbgtNN7-33" value="" style="endArrow=none;html=1;rounded=0;exitX=0.551;exitY=0.747;exitDx=0;exitDy=0;exitPerimeter=0;" edge="1" parent="1" source="q_M4NoGxjoYpFTbgtNN7-1">
          <mxGeometry width="50" height="50" relative="1" as="geometry">
            <mxPoint x="63" y="370" as="sourcePoint" />
            <mxPoint x="731" y="139" as="targetPoint" />
          </mxGeometry>
        </mxCell>
        <mxCell id="q_M4NoGxjoYpFTbgtNN7-34" value="" style="endArrow=none;html=1;rounded=0;exitX=0;exitY=0.5;exitDx=0;exitDy=0;" edge="1" parent="1" source="q_M4NoGxjoYpFTbgtNN7-30">
          <mxGeometry width="50" height="50" relative="1" as="geometry">
            <mxPoint x="397" y="276" as="sourcePoint" />
            <mxPoint x="175" y="128" as="targetPoint" />
          </mxGeometry>
        </mxCell>
        <mxCell id="q_M4NoGxjoYpFTbgtNN7-35" value="" style="endArrow=none;html=1;rounded=0;exitX=0.5;exitY=1;exitDx=0;exitDy=0;" edge="1" parent="1" source="q_M4NoGxjoYpFTbgtNN7-24">
          <mxGeometry width="50" height="50" relative="1" as="geometry">
            <mxPoint x="397" y="276" as="sourcePoint" />
            <mxPoint x="429" y="337" as="targetPoint" />
          </mxGeometry>
        </mxCell>
      </root>
    </mxGraphModel>
  </diagram>
</mxfile>
